<?xml version="1.0" encoding="UTF-8" standalone="no"?>
<svg
   xml:space="preserve"
   version="1.1"
   style="image-rendering:optimizeQuality;shape-rendering:geometricPrecision;text-rendering:geometricPrecision"
   viewBox="0 0 73612.5 73612.5"
   x="0px"
   y="0px"
   fill-rule="evenodd"
   clip-rule="evenodd"
   id="svg14"
   width="4.4167501e+09"
   height="5.5209375e+09"
   xmlns="http://www.w3.org/2000/svg"
   xmlns:svg="http://www.w3.org/2000/svg"><defs
     id="defs4"><style
       type="text/css"
       id="style2">
   
    .fil0 {fill:black;fill-rule:nonzero}
   
  </style></defs><g
     id="g8"
     style="stroke:#fffff3;stroke-opacity:1"
     transform="translate(297890620,89267576)"><rect
       style="opacity:0.98;fill:#fffff3;fill-opacity:1;stroke:none;stroke-width:2.39622;stroke-miterlimit:3.4;stroke-opacity:1"
       id="rect3132"
       width="73612.5"
       height="73612.5"
       x="-4964.8438"
       y="-1190.2344" /><path
       class="fil0"
       d="m 16719.935,17560.142 c 27.23,35.04 47.71,73.19 61.64,112.87 2179.04,1295.69 5190.76,2096.39 8524.59,2096.39 3308.07,0 6299,-788.38 8473.94,-2066.45 427.97,-521.58 764.69,-1087.7 994.02,-1686.67 224.8,-587.13 344.96,-1205.83 344.96,-1844.83 0,-1910.21 -1079.84,-3648.64 -2825.67,-4915.0402 -1782.96,-1293.33 -4252.92,-2093.29 -6987.25,-2093.29 -2734.33,0 -5204.29,799.96 -6987.25,2093.29 -1745.83,1266.4002 -2825.67,3004.8302 -2825.67,4915.0402 0,605.86 106.69,1191.11 307.06,1746.5 207.94,576.39 519.38,1127.4 919.63,1642.19 z m 1702.84,19851.9 c 488.17,231.59 1006.75,429.17 1549.59,589.18 539.19,158.93 1101.82,280.3 1681.84,360.6 6.38,-394.05 -2.04,-744.86 -28.51,-1035.48 -93.75,-1028.94 -529.37,-1729.54 -1057.9,-2038.53 -204.84,-119.76 -421.36,-178.35 -632.17,-171.01 -207.07,7.21 -415.12,79.05 -607.59,220.14 -443.86,325.36 -799.36,998.91 -905.26,2075.1 z m 3216.47,1451.44 c -622.8,-83.57 -1227.63,-212.82 -1807.5,-383.74 -499.49,-147.23 -980.89,-325.82 -1439.76,-533.18 l -0.09,3.9 c -9.44,488.01 -23.66,1061.11 -40.92,1702.57 489.02,236.74 1010,439.3 1556.62,604.01 515.24,155.26 1052.37,276.13 1606,359.53 59.03,-619.61 103.06,-1215.26 125.65,-1753.09 z m 4046.73,-610.08 c 367.64,-69.78 736.84,-156.53 1106.37,-260.97 330.66,-93.45 660.99,-200.87 990.05,-322.76 -211.82,-400.5 -464.14,-782.97 -758.88,-1145.71 -408.14,232.54 -843.97,395.18 -1251.67,473.24 -100.53,29.46 -199.11,47.87 -295.39,56.25 71.9,328.93 142.27,738.6 209.52,1199.95 z m 2314.64,-132.8 c -357.54,133.94 -715.73,251.18 -1073.51,352.29 -391,110.5 -782.37,202.03 -1172.7,275.36 70.85,538.72 137.35,1127.13 197.4,1727.62 440.33,-93.35 883.63,-211.64 1327.87,-356.12 405.62,-131.92 809.31,-284.78 1209.31,-459.45 -111.35,-537.48 -273.14,-1051.68 -488.37,-1539.7 z m -6537.1,2993.77 c -584.66,-86.98 -1152.78,-214.37 -1698.5,-378.81 -495.39,-149.28 -973.17,-329.79 -1428.91,-538.98 -8.61,310.63 -17.77,634.65 -27.3,970.48 469.05,229.82 968.08,428.15 1491.47,591.7 496.81,155.24 1014.02,278.3 1546.75,366.37 41.95,-337.53 81.1,-676.11 116.49,-1010.76 z m 7115.67,-950.36 c -381.46,163.03 -763.62,306.23 -1145.21,430.34 -476.12,154.85 -955.02,281.18 -1434.05,380.38 31.22,335.97 60.26,673.42 86.77,1005.8 425.93,-94.74 850.42,-211.51 1271.4,-351.33 449.08,-149.16 897.57,-325.15 1343.27,-529.24 -36.62,-335.69 -77.17,-649.36 -122.18,-935.95 z m -7295.79,2456.48 c -562.13,-92.09 -1107.75,-221.48 -1631.56,-385.17 -470.36,-146.98 -924.47,-322.37 -1358.49,-523.91 -8.93,314.6 -18.1,638.2 -27.37,969.14 457.46,226.95 942.93,423.56 1451.14,586.81 458.52,147.29 934.79,267.04 1424.89,357 48.85,-327.58 96.31,-663.93 141.39,-1003.87 z m 7470.29,-997.98 c -410.97,182.12 -824.63,341.61 -1239.33,479.35 -465.71,154.68 -929.46,281.41 -1389.18,381.5 25.53,348.51 47.96,687.36 66.86,1008.48 399.66,-92.67 800.95,-205.87 1202.34,-340.49 481.52,-161.5 960.99,-353.17 1435.52,-576.48 -22.93,-329.54 -48.23,-648.03 -76.21,-952.36 z m -7687.22,2494.65 c -516.76,-94.19 -1018.72,-220.06 -1501.69,-375.2 -455.27,-146.24 -894.43,-318.88 -1313.97,-515.86 -175.13,6344.08 -364.01,15057.28 255.1,17004.22 507.42,1595.67 1276.18,2527.8 2188.43,3058.13 921.35,535.62 2009.33,677.39 3130.2,681.57 l 26419.94,98.58 c -78.91,-231.04 -174.94,-386.07 -305.24,-485.79 -219.59,-168.05 -588.19,-236.04 -1168.84,-283.91 -202.87,-16.73 -361.84,-29.27 -527.94,-42.37 -1993.32,-157.24 -4823.61,-380.53 -6577.32,-1278.11 -1480.13,-757.56 -2221.58,-1942.94 -1246.73,-3847.59 358.54,-700.49 580.72,-1131.63 821.75,-1599.35 2092.94,-4061.33 5363.7,-10408.21 5613.14,-11920.89 85.79,-520.15 33.4,-977.64 -122.71,-1356 -132.49,-321.09 -341.63,-587.96 -605.09,-789.12 -266.65,-203.59 -589.71,-340.62 -946.51,-399.47 -479.1,-79.02 -1018.7,-18.59 -1567.62,207.91 -2545.93,1050.54 -5257.45,4431.02 -7523.79,7256.5 -1527.17,1903.94 -2857.93,3563.02 -3877.92,4177.59 -450.31,271.34 -900.91,417.52 -1316.21,426.76 -291.33,6.49 -563.73,-53.82 -806.56,-184.63 -244.4,-131.67 -453.32,-330.37 -615.39,-599.35 -218.86,-363.23 -351.44,-859.34 -365.62,-1496.24 -12.73,-571.23 -23.42,-1224.82 -34.86,-1925.14 -34.54,-2113.81 -76.16,-4657.34 -206.64,-6821.9 -435.85,197.79 -873.75,369.59 -1311.8,516.51 -443.06,148.61 -888.1,272.35 -1333.04,372.35 51.83,1038.79 58.42,1811.83 1.85,1982.18 -276.84,833.44 -1292.32,1216.45 -2367.24,1253.87 -414.76,14.44 -841.65,-21.42 -1234.8,-101.36 -404.7,-82.29 -777.67,-212.18 -1071.83,-383.36 -517.09,-300.92 -814.72,-727.47 -714.67,-1264.18 77.5,-415.71 156.6,-877.49 233.62,-1366.35 z m 3905.81,-18796.46 c 185.68,-113.24 343.8,-220.91 481.57,-314.71 371.13,-252.71 614.49,-418.4 928.7,-390.2 169.99,15.24 373.35,122 490.61,259.25 59.65,69.81 102.86,150.77 119.57,238.67 19.92,104.83 2.62,211.24 -65.77,311.96 -78.3,115.27 -226.54,214.35 -472.59,272.2 -205.62,48.35 -364.35,15.3 -533.5,-19.92 -185.54,-38.63 -389.47,-81.07 -716.11,85.01 -58.71,35.41 -120.34,71.53 -185.21,108.22 l -0.05,-0.09 c -113.79,64.72 -259.74,30.24 -331.98,-80.97 -74.96,-115.41 -42.17,-269.76 73.24,-344.72 74.26,-48.33 144.62,-89.58 211.52,-124.7 z m 1367.31,-208.81 c -73.06,-6.56 -159.97,26.4 -268.15,87.84 94.46,18.85 184.03,31.95 269.65,11.82 58.22,-13.69 99.97,-26.19 128.21,-37.5 -38.76,-34.1 -88.7,-58.48 -129.71,-62.16 z m 517.67,10578.07 c 14.54,-11.51 29.66,-21.86 45.26,-31.04 13.66,-9.52 27.26,-19.16 40.8,-28.89 315.63,-226.85 593.23,-506.08 784.4,-824.25 181.76,-302.5 285.11,-642.25 265.46,-1006.54 -14.93,-276.77 -101.02,-572.72 -277.38,-883.95 -5.9,-9.33 -11.36,-18.86 -16.41,-28.55 -46.65,-80.08 -99.27,-161.14 -158.2,-243.15 -326.3,-454.05 -837.34,-966.44 -1364.92,-1495.43 -780.45,-782.53 -1595.54,-1599.8 -2007.86,-2420.38 -166.79,-331.95 -261.1,-669.63 -250.79,-976.95 6.81,-203.65 57.96,-394.44 161.2,-564.26 104.48,-171.86 257.19,-314.87 465.09,-419.32 255.66,-128.46 597.25,-196.53 1039.13,-181.71 445.06,14.92 834.73,2.47 1172.66,-32.76 30.49,-7.19 62.22,-10.88 94.71,-10.62 687.29,-82.77 1148.99,-263.67 1418.07,-500.94 153.67,-135.5 232.33,-288.59 244.79,-447.3 13.85,-176.28 -45.93,-372.21 -169.47,-572.52 -61.19,-99.22 -136.28,-197.93 -224.37,-294.88 -70.14,-64.76 -139.63,-132.79 -208.37,-204.45 -440.86,-388.89 -1095.68,-731.47 -1904.94,-936.32 -491.63,-89.82 -978.06,-121.51 -1437.51,-90.48 -687.68,46.46 -1308.43,234.48 -1783.53,580.02 -457.77,332.93 -784.64,820.36 -907.35,1478.39 -51.06,273.78 -67.62,579.28 -44.74,917.95 131.11,1940.43 2046.54,3719.89 3555.82,5122.01 l 170.9,158.87 c 805.8,749.98 901.96,1330.53 620.93,1801.05 -247.01,413.55 -791.27,653.82 -1368.97,836.65 -273.99,86.71 -390.34,331.54 -392.44,607.4 -1.06,139.06 24.91,288.48 73.59,436.42 49.33,149.9 120.51,292.74 209.19,416.65 154.24,215.54 364.17,375.54 599.18,402.5 12.35,-1.8 24.88,-3.05 37.6,-3.7 80.35,-4.33 163.69,-14.02 249.1,-28.73 11.08,-2.48 22.17,-4.44 33.25,-5.95 398.44,-74.29 839.43,-257 1236.12,-524.84 z m 822.41,375.02 c 377.36,472.15 692.49,977.81 948.68,1513.67 323.35,676.37 550.03,1397.67 686.92,2157.45 277.69,1541.16 404.94,3978.28 475.17,6422.81 664.75,-75.29 1226.79,-161.3 1594.46,-355.79 340.01,-179.86 516.91,-497.36 453.07,-1090.97 -24.14,-224.48 -54.84,-519.61 -85.49,-814.41 -354.68,-3410.74 -715.03,-6871.46 -2969.78,-9777.34 -37.64,394.98 -170.86,762.34 -370.6,1094.76 -191.81,319.22 -445,604.8 -732.43,849.82 z m 2131.87,10894.78 c 24.74,1023.53 41.23,2031.25 56.36,2957.14 11.35,694.27 21.94,1342.19 34.86,1922.02 10.83,486.4 102.54,849.45 253.12,1099.36 86.04,142.81 190.8,244.98 309.13,308.73 119.93,64.6 259.47,94.29 412.82,90.87 271.72,-6.05 586.46,-113.69 919.33,-314.26 900.99,-542.87 2189.67,-2149.49 3668.54,-3993.21 2324.18,-2897.6 5104.91,-6364.35 7842.55,-7494 691.46,-285.32 1380.1,-359.96 1998.86,-257.91 488.06,80.5 932.74,270.06 1302.77,552.59 373.22,284.96 669.82,663.83 858.21,1120.38 210.71,510.68 283.63,1114.74 172.71,1787.24 -270.27,1639.01 -3575.97,8053.68 -5691.26,12158.39 -364.11,706.56 -698.14,1354.73 -821.75,1596.23 -703.2,1373.91 -168.14,2229.09 899.85,2775.71 1606.27,822.12 4347.04,1038.34 6277.32,1190.61 202.48,15.97 397.63,31.37 531.06,42.37 730.88,60.26 1218.16,163.69 1587.6,446.41 383.7,293.66 585.68,729.5 727.75,1442.4 43.15,216.6 -97.46,427.17 -314.06,470.32 -38.7,7.71 -77.21,9.52 -114.61,6.11 l -26898.16,-100.36 c -1245.23,-4.65 -2464.76,-168.44 -3530.2,-787.83 -1074.52,-624.66 -1971.89,-1697.06 -2547.81,-3508.13 -524.82,-1650.41 -510.5,-7595.87 -393.62,-13181.64 -578.56,-149.88 -1117.05,-341.53 -1546.59,-689.21 -473.79,-383.5 -790.79,-930.7 -845.29,-1767.44 -136.4,-2094.09 -303.77,-5041.41 -227.36,-8073.42 76.78,-3046.46 401.08,-6167.69 1252.01,-8578.87 687.57,-1948.27 2240.27,-3473.81 4063.77,-4431.48 581.94,-305.62 1192.5,-553.68 1812.17,-739.51 -2341.75,-451.17 -4173.53,-1359.21 -5571,-2505.85 -2697.34,-2213.19 -3766.95,-5312 -3766.95,-7742.45 0,-220.91 179.09,-400 400,-400 220.91,0 400,179.09 400,400 0,1360.24 675.33,2636.44 1840.18,3717.48 -40.26,-96.42 -78.14,-193.72 -113.54,-291.84 -233,-645.83 -357.06,-1321.32 -357.06,-2015.26 0,-2181.28 1206.42,-4147.06 3156.91,-5561.9202 1913.38,-1387.93 4549.9,-2246.41 7456.01,-2246.41 2906.11,0 5542.63,858.48 7456.01,2246.41 1950.49,1414.8602 3156.91,3380.6402 3156.91,5561.9202 0,737.59 -138.66,1451.66 -398.08,2129.21 -22.57,58.94 -46.08,117.61 -70.49,175.99 1163.6,-1080.64 1838.15,-2356.13 1838.15,-3715.58 0,-220.91 179.09,-400 400,-400 220.91,0 400,179.09 400,400 0,2430.45 -1069.61,5529.26 -3766.95,7742.45 -1666.88,1367.69 -3951.6,2396 -6982.8,2714.28 429.82,204.44 800.32,447.48 1099.61,710.74 13.54,10.57 26.54,22.13 38.9,34.68 68.85,62.26 133.74,125.58 194.51,189.75 814.08,740.16 1784.7,973.38 2656.49,1182.76 311,74.7 610.42,146.61 896.04,237.6 111.69,35.58 253,79.35 605.98,190.57 3516.66,1108.03 6609.54,2082.55 7949.85,6128.92 69.03,209.69 -45,435.66 -254.69,504.69 -160.86,52.96 -331.3,-1.83 -433.12,-124.88 -1859.97,-2040.26 -4256.73,-3194.36 -6637.31,-3876.8 -2400.01,-688.01 -4794.58,-899.5 -6615.45,-1053.33 -378.45,40.97 -804.75,55.91 -1281.69,39.92 -302.73,-10.15 -516.92,26.51 -657.87,97.33 -66.81,33.57 -112.56,74.03 -140.09,119.32 -28.77,47.32 -43.26,107.46 -45.58,176.76 -5.7,170.12 56.78,377.5 166.41,595.69 352.6,701.74 1123.17,1474.36 1860.98,2214.14 548.74,550.21 1080.26,1083.14 1446.18,1592.31 66.84,93 127.58,185.6 182.52,277.76 3337.83,3308.04 3760.39,7367.49 4175.65,11360.75 25.78,247.89 51.46,494.9 85.49,811.29 106.39,989.32 -232.76,1541.89 -874.95,1881.61 -500.85,264.95 -1168.15,363.86 -1945.24,450.38 z m -12440.7,-493.03 c 40.48,-1780.82 89.36,-3500.76 132.1,-5005.09 40.17,-1414.22 74.95,-2637.93 92.08,-3523.68 32.46,-1678.26 565.92,-2735.17 1261.14,-3244.78 325.55,-238.64 687.02,-360.46 1054.47,-373.26 363.71,-12.67 726.85,82.33 1060.29,277.27 731.1,427.41 1329.02,1345.48 1448.54,2657.27 76.57,840.68 15.21,2118.05 -117.44,3492.78 -162.61,1685.14 -432.2,3525.1 -684.79,4880.03 -28.02,150.32 106.99,299.85 330.29,429.8 219.98,128.01 509.66,227.34 831.21,292.72 333.12,67.73 696.25,98.07 1050.42,85.74 772.07,-26.87 1482.37,-244.52 1635.98,-706.99 83.21,-250.56 -67.93,-2765.01 -301.57,-5119.29 -163.25,-1645 -367.61,-3184.12 -561.55,-3770.57 -212.3,-131.12 -398.11,-313.24 -550,-525.5 -137.21,-191.73 -245.57,-407.33 -318.57,-629.15 -73.65,-223.79 -112.84,-459.53 -111.09,-689.54 4.65,-608.9 285.78,-1156.97 948.7,-1366.78 422.95,-133.85 808.43,-288.02 925.21,-483.53 82.76,-138.57 -23.19,-381.84 -480.31,-807.29 l -170.9,-158.87 c -1611.41,-1497.01 -3656.48,-3396.89 -3808.94,-5653.27 -27.27,-403.53 -6.17,-774.87 57.24,-1114.83 118.27,-634.23 381.11,-1151.38 751.07,-1559.23 -485.24,160.67 -963.42,363.04 -1423.09,604.45 -1658.84,871.19 -3066.92,2246.47 -3682.53,3990.84 -820.09,2323.79 -1133.34,5359.95 -1208.25,8332.01 -75.26,2986.53 91.51,5918.99 227.36,8004.66 37.85,581.07 244.31,950.01 551.53,1198.68 276.12,223.49 648.14,368.55 1061.4,485.4 z m 11338.46,-19753.33 c 1511.46,161.76 3229.67,416.3 4964.64,913.67 1887.25,541.01 3787.71,1367.75 5455.7,2670.41 -1468.28,-2173.63 -3873.11,-2931.84 -6536.69,-3771.08 -49.33,-15.54 -89.87,-28.29 -609.1,-193.69 -258.67,-82.4 -543.72,-150.87 -839.8,-221.98 -586.75,-140.92 -1213.71,-291.51 -1829.67,-582.6 0.5,42.92 -0.88,85.7 -4.23,128.29 -28.65,364.79 -193.83,702.89 -513.55,984.8 -27.8,24.52 -56.94,48.57 -87.3,72.18 z m -14422.17,-9977.47 c 558.62,1128.82 1379.03,2224.21 2509.75,3151.97 1888.54,1549.57 4648.23,2633.16 8509.29,2633.16 3861.06,0 6620.75,-1083.59 8509.29,-2633.16 1130.72,-927.76 1951.13,-2023.15 2509.75,-3151.97 -569.72,590.17 -1262.92,1129.76 -2058.6,1605.81 -2300.48,1376.36 -5469.07,2227.66 -8960.44,2227.66 -3491.37,0 -6659.96,-851.3 -8960.44,-2227.66 -795.68,-476.05 -1488.88,-1015.64 -2058.6,-1605.81 z"
       id="path6"
       style="fill:#cc241d;fill-opacity:1;stroke:none;stroke-opacity:1;image-rendering:optimizeQuality;shape-rendering:geometricPrecision;text-rendering:geometricPrecision" /></g><text
     x="297890624"
     y="89327592"
     fill="#000000"
     font-size="5px"
     font-weight="bold"
     font-family="'Helvetica Neue', Helvetica, Arial-Unicode, Arial, Sans-serif"
     id="text10">Created by Olena Panasovska</text><text
     x="297890624"
     y="89327600"
     fill="#000000"
     font-size="5px"
     font-weight="bold"
     font-family="'Helvetica Neue', Helvetica, Arial-Unicode, Arial, Sans-serif"
     id="text12">from the Noun Project</text></svg>
