<?xml version="1.0" encoding="UTF-8"?>
<svg width="512" height="512" version="1.1" viewBox="0 0 135.47 135.47" xml:space="preserve" xmlns="http://www.w3.org/2000/svg"><path d="m58.855 101.36c-5.2711-6.6867-5.1405-17.018 0.35694-28.229 6.8265-13.921 16.366-11.541 21.425 5.3462 3.5926 11.991 3.1979 16.493-2.0286 23.137-5.9768 7.5982-13.641 7.4996-19.754-0.25443zm15.058-0.99317c4.4401-4.4401 3.011-6.1798-5.0763-6.1798-4.2486 0-7.7248 0.79413-7.7248 1.7657 0 2.5778 4.9053 7.0626 7.7248 7.0626 1.3353 0 3.6196-1.1918 5.0763-2.6485zm4.8556-12.756c0-5.1677-7.3538-19.908-9.9319-19.908-2.5781 0-9.9319 14.741-9.9319 19.908 0 1.1894 4.4694 2.1624 9.9319 2.1624 5.4625 0 9.9319-0.97306 9.9319-2.1624zm-33.106-40.358c0-8.2987 12.442-19.022 22.071-19.022 9.6287 0 22.071 10.723 22.071 19.022 0 5.186-0.2933 5.2558-22.071 5.2558-21.778 0-22.071-0.06675-22.071-5.2558zm39.728-1.4708c0-4.4201-11.716-13.137-17.657-13.137s-17.657 8.717-17.657 13.137c0 1.4192 6.8205 2.3124 17.657 2.3124s17.657-0.89324 17.657-2.3124z" style="fill:#cc241d;stroke-width:2.2072;stroke:#cc241d"/></svg>
